<svg id='Bug_24' width='24' height='24' viewBox='0 0 24 24' xmlns='http://www.w3.org/2000/svg' xmlns:xlink='http://www.w3.org/1999/xlink'><rect width='24' height='24' stroke='none' fill='#000000' opacity='0'/>


<g transform="matrix(0.42 0 0 0.42 12 12)" >
<g style="" >
<g transform="matrix(1 0 0 1 -5.7 -18.15)" >
<path style="stroke: none; stroke-width: 1; stroke-dasharray: none; stroke-linecap: butt; stroke-dashoffset: 0; stroke-linejoin: miter; stroke-miterlimit: 4; fill: rgb(163,123,87); fill-rule: nonzero; opacity: 1;" transform=" translate(-18.3, -5.85)" d="M 18.784 5.194 C 18.286 4.67 17.923 4.39 17.356 3.94 C 17.102 3.738 16.821 3.547 16.5 3.5 C 16.179 3.453 15.809 3.593 15.686 3.893 C 15.561 4.2 15.722 4.544 15.894 4.827 C 16.818 6.354 18.026 7.378 19.604 8.212 L 20.954 7.577999999999999 C 20.327 6.92 19.411 5.853 18.784 5.194 z" stroke-linecap="round" />
</g>
<g transform="matrix(1 0 0 1 5.86 -17.63)" >
<path style="stroke: none; stroke-width: 1; stroke-dasharray: none; stroke-linecap: butt; stroke-dashoffset: 0; stroke-linejoin: miter; stroke-miterlimit: 4; fill: rgb(163,123,87); fill-rule: nonzero; opacity: 1;" transform=" translate(-29.86, -6.37)" d="M 32.413 4.104 C 32.321999999999996 3.84 32.038999999999994 3.678 31.759999999999998 3.6590000000000003 C 31.481 3.6400000000000006 31.209 3.7420000000000004 30.959999999999997 3.8670000000000004 C 30.419999999999998 4.140000000000001 29.950999999999997 4.532 29.499 4.934 C 28.705 5.640000000000001 27.999 6.748 27.279999999999998 7.53 L 28.526999999999997 9.082 C 29.511999999999997 8.006 30.688 6.174000000000001 31.808999999999997 5.242000000000001 C 32.163 4.949 32.562 4.538 32.413 4.104 z" stroke-linecap="round" />
</g>
<g transform="matrix(1 0 0 1 -0.31 -15.4)" >
<path style="stroke: none; stroke-width: 1; stroke-dasharray: none; stroke-linecap: butt; stroke-dashoffset: 0; stroke-linejoin: miter; stroke-miterlimit: 4; fill: rgb(81,54,32); fill-rule: nonzero; opacity: 1;" transform=" translate(-23.69, -8.6)" d="M 26.522 7.077 C 25.081999999999997 6.393 23.302 6.369 21.840999999999998 7.015 C 20.38 7.66 19.191999999999997 9.184 18.843999999999998 10.658 L 28.528 10.495999999999999 C 28.371 9.42 27.558 7.569 26.522 7.077 z" stroke-linecap="round" />
</g>
<g transform="matrix(1 0 0 1 0.01 6.01)" >
<path style="stroke: none; stroke-width: 1; stroke-dasharray: none; stroke-linecap: butt; stroke-dashoffset: 0; stroke-linejoin: miter; stroke-miterlimit: 4; fill: rgb(245,132,32); fill-rule: nonzero; opacity: 1;" transform=" translate(-24.01, -30.01)" d="M 17.345 16.149 C 15.691999999999998 16.175 13.724999999999998 16.353 12.573999999999998 17.574 C 11.357999999999999 18.864 11.440999999999999 20.905 11.602999999999998 22.695 C 11.777999999999999 24.614 11.951999999999998 26.533 12.126999999999999 28.451999999999998 C 12.384999999999998 31.285999999999998 12.661 34.19 13.863999999999999 36.754 C 14.308 37.701 14.870999999999999 38.582 15.431999999999999 39.461 C 16.084 40.481 16.75 41.516 17.657999999999998 42.303 C 18.287 42.848 19.016999999999996 43.259 19.773999999999997 43.590999999999994 C 23.098 45.047999999999995 27.284 44.839999999999996 29.965999999999998 42.346999999999994 C 30.695999999999998 41.66799999999999 31.290999999999997 40.85099999999999 31.837999999999997 40.00999999999999 C 35.939 33.70299999999999 37.443999999999996 25.66699999999999 35.915 18.24199999999999 C 35.821999999999996 17.79099999999999 35.716 17.33499999999999 35.483 16.940999999999992 C 34.884 15.928999999999991 33.714999999999996 15.454999999999991 32.567 15.536999999999992 C 31.418 15.618999999999993 30.314 16.03299999999999 29.17 16.161999999999992 C 27.712000000000003 16.32699999999999 26.249000000000002 16.025999999999993 24.791000000000004 15.865999999999993 C 22.397 15.603 19.751 16.111 17.345 16.149 z" stroke-linecap="round" />
</g>
<g transform="matrix(1 0 0 1 -0.51 -8.48)" >
<path style="stroke: none; stroke-width: 1; stroke-dasharray: none; stroke-linecap: butt; stroke-dashoffset: 0; stroke-linejoin: miter; stroke-miterlimit: 4; fill: rgb(163,123,87); fill-rule: nonzero; opacity: 1;" transform=" translate(-23.49, -15.52)" d="M 13.648 17.129 C 13.706 12.435000000000002 19.189999999999998 9.686000000000002 23.918 9.522000000000002 C 25.529 9.466000000000003 27.189999999999998 9.758000000000003 28.551 10.614000000000003 C 29.685 11.326000000000002 30.546999999999997 12.381000000000002 31.45 13.367000000000003 C 31.966 13.931000000000003 32.508 14.484000000000002 32.885 15.148000000000003 C 33.262 15.812000000000003 33.46 16.615000000000002 33.235 17.343000000000004 C 32.857 18.564000000000004 31.493 19.150000000000002 30.282 19.584000000000003 C 28.967 20.055000000000003 27.652 20.526000000000003 26.337 20.998000000000005 C 25.559 21.277000000000005 24.755 21.560000000000006 23.928 21.516000000000005 C 23.251 21.480000000000004 22.607 21.227000000000004 21.978 20.977000000000004 C 20.199 20.271000000000004 18.42 19.564000000000004 16.641000000000002 18.858000000000004 C 15.602 18.447 13.634 18.238 13.648 17.129 z" stroke-linecap="round" />
</g>
<g transform="matrix(1 0 0 1 -0.5 0.49)" >
<path style="stroke: none; stroke-width: 1; stroke-dasharray: none; stroke-linecap: butt; stroke-dashoffset: 0; stroke-linejoin: miter; stroke-miterlimit: 4; fill: rgb(1,1,1); fill-rule: nonzero; opacity: 1;" transform=" translate(-23.5, -24.49)" d="M 43.334 34.558 C 43.126000000000005 34.039 42.929 33.549 42.792 32.926 C 42.684000000000005 32.425000000000004 42.561 31.858 42.29 31.341 C 42.041 30.86 41.697 30.474 41.308 30.054000000000002 C 39.929 28.573 38.465 27.137 36.956 25.782000000000004 C 37.04900000000001 24.136000000000003 37.010000000000005 22.481 36.829 20.835000000000004 C 38.945 20.181000000000004 40.912 19.519000000000005 43.161 18.700000000000003 C 43.300000000000004 18.649000000000004 43.409 18.541000000000004 43.46 18.402000000000005 C 44.081 16.707000000000004 44.023 15.020000000000005 43.968 13.389000000000005 C 43.938 12.478000000000005 43.905 11.535000000000004 43.99 10.591000000000005 C 44.014 10.316000000000004 43.812000000000005 10.072000000000005 43.537 10.048000000000005 C 43.259 10.029000000000005 43.018 10.225000000000005 42.994 10.501000000000005 C 42.903 11.507000000000005 42.936 12.481000000000005 42.969 13.423000000000005 C 43.021 14.952000000000005 43.071 16.401000000000007 42.596000000000004 17.841000000000005 C 40.514 18.595000000000006 38.665000000000006 19.217000000000006 36.7 19.828000000000003 C 36.618 19.263 36.525000000000006 18.700000000000003 36.410000000000004 18.139000000000003 C 36.300000000000004 17.659000000000002 36.18000000000001 17.139000000000003 35.910000000000004 16.689000000000004 C 35.386 15.802000000000003 34.468 15.227000000000004 33.400000000000006 15.074000000000003 C 33.370000000000005 15.016000000000004 33.352000000000004 14.957000000000003 33.319 14.899000000000003 C 32.956 14.260000000000003 32.465 13.729000000000003 31.992000000000004 13.215000000000003 L 31.415000000000006 12.582000000000004 C 30.690000000000005 11.776000000000003 29.934000000000005 10.952000000000005 29.003000000000007 10.323000000000004 C 28.960000000000008 10.069000000000004 28.889000000000006 9.789000000000003 28.791000000000007 9.494000000000003 C 28.82700000000001 9.471000000000004 28.866000000000007 9.452000000000004 28.89700000000001 9.419000000000004 C 29.28600000000001 8.994000000000003 29.68900000000001 8.474000000000004 30.11800000000001 7.922000000000004 C 30.78600000000001 7.060000000000004 31.47700000000001 6.168000000000005 32.13100000000001 5.6250000000000036 C 32.388000000000005 5.411000000000003 33.169000000000004 4.760000000000003 32.88700000000001 3.9410000000000034 C 32.739 3.509 32.3 3.194 31.792 3.16 C 31.361 3.132 30.983 3.297 30.735000000000003 3.422 C 30.127000000000002 3.729 29.607000000000003 4.171 29.168000000000003 4.561 C 28.674 5 28.356 5.478 28.049 5.939 C 27.82 6.284 27.602999999999998 6.611 27.314 6.925 C 27.295 6.946 27.287 6.9719999999999995 27.272 6.994 C 27.101 6.845 26.924999999999997 6.7139999999999995 26.738 6.625 C 25.176 5.883 23.222 5.856 21.639 6.557 C 21.439 6.6450000000000005 21.244 6.7490000000000006 21.053 6.8660000000000005 C 21.043 6.853000000000001 21.038 6.836 21.026 6.824000000000001 L 19.146 4.849 C 18.651 4.328 18.277 4.032 17.758000000000003 3.62 L 17.666000000000004 3.548 C 17.373000000000005 3.316 17.014000000000003 3.069 16.571000000000005 3.004 C 15.988000000000005 2.924 15.423000000000005 3.212 15.221000000000005 3.7039999999999997 C 14.983000000000006 4.287999999999999 15.332000000000006 4.866 15.464000000000006 5.085 C 16.357000000000006 6.5600000000000005 17.569000000000006 7.673 19.256000000000007 8.586 C 18.88800000000001 9.114 18.607000000000006 9.693 18.433000000000007 10.292 C 15.649000000000008 11.554 13.513000000000007 13.701 13.198000000000008 16.493 C 12.839000000000008 16.691 12.498000000000008 16.919999999999998 12.208000000000007 17.229999999999997 C 11.412000000000008 18.073999999999998 11.116000000000007 19.176 11.039000000000007 20.328999999999997 C 9.129000000000007 19.738999999999997 7.473000000000007 19.046999999999997 5.561000000000007 18.237999999999996 C 5.484000000000007 18.204999999999995 5.366000000000007 18.154999999999998 5.335000000000007 18.118999999999996 C 5.295000000000007 18.071999999999996 5.271000000000007 17.903999999999996 5.258000000000007 17.812999999999995 C 5.091000000000007 16.675999999999995 4.851000000000007 15.598999999999995 4.619000000000007 14.557999999999996 C 4.390000000000007 13.531999999999996 4.154000000000007 12.468999999999996 3.993000000000007 11.364999999999997 C 3.952000000000007 11.090999999999998 3.691000000000007 10.903999999999996 3.4260000000000073 10.941999999999997 C 3.153000000000007 10.981999999999996 2.963000000000007 11.235999999999997 3.003000000000007 11.508999999999997 C 3.170000000000007 12.650999999999996 3.411000000000007 13.730999999999996 3.6440000000000072 14.775999999999996 C 3.8720000000000074 15.798999999999996 4.107000000000007 16.856999999999996 4.268000000000007 17.956999999999997 C 4.299000000000007 18.173 4.346000000000007 18.499999999999996 4.575000000000007 18.769 C 4.760000000000007 18.985 4.997000000000007 19.084999999999997 5.203000000000007 19.171999999999997 C 7.202000000000007 20.017999999999997 8.942000000000007 20.749999999999996 11.020000000000007 21.372999999999998 C 11.033000000000007 21.833999999999996 11.067000000000007 22.293999999999997 11.109000000000007 22.74 L 11.429000000000007 26.288999999999998 C 11.389000000000008 26.302 11.348000000000008 26.310999999999996 11.310000000000008 26.334999999999997 C 9.511000000000008 27.490999999999996 7.728000000000008 28.709999999999997 6.010000000000008 29.956999999999997 C 5.6580000000000075 30.214 5.2590000000000074 30.504999999999995 4.931000000000008 30.882999999999996 C 4.500000000000008 31.377999999999997 4.231000000000008 31.971999999999994 3.9930000000000083 32.495 C 3.7640000000000082 32.997 3.6250000000000084 33.492 3.4910000000000085 33.97 C 3.3620000000000085 34.431 3.2400000000000087 34.866 3.0440000000000085 35.297 C 2.9300000000000086 35.547999999999995 3.0410000000000084 35.845 3.2920000000000087 35.958999999999996 C 3.359000000000009 35.989 3.4300000000000086 36.004 3.4990000000000085 36.004 C 3.6880000000000086 36.004 3.8700000000000085 35.896 3.9540000000000086 35.711 C 4.183000000000009 35.21 4.320000000000008 34.717 4.454000000000009 34.239999999999995 C 4.5840000000000085 33.77799999999999 4.706000000000008 33.34199999999999 4.9030000000000085 32.90899999999999 C 5.123000000000008 32.42499999999999 5.3500000000000085 31.923999999999992 5.6850000000000085 31.53899999999999 C 5.940000000000008 31.24699999999999 6.275000000000008 31.001999999999992 6.599000000000008 30.76599999999999 C 8.198000000000008 29.60499999999999 9.855000000000008 28.47399999999999 11.52800000000001 27.39099999999999 L 11.628000000000009 28.499999999999993 C 11.812000000000008 30.497999999999994 12.016000000000009 32.69599999999999 12.609000000000009 34.782999999999994 C 12.32300000000001 35.013999999999996 12.03400000000001 35.239999999999995 11.740000000000009 35.461999999999996 C 10.914000000000009 36.083 10.06000000000001 36.724999999999994 9.39300000000001 37.57299999999999 C 8.718000000000009 38.43299999999999 8.29700000000001 39.422999999999995 7.8900000000000095 40.379999999999995 C 7.546000000000009 41.187999999999995 7.26600000000001 42.044 6.99500000000001 42.87199999999999 C 6.73000000000001 43.67999999999999 6.45700000000001 44.51499999999999 6.13100000000001 45.28399999999999 C 6.02300000000001 45.53799999999999 6.14200000000001 45.831999999999994 6.39600000000001 45.93899999999999 C 6.459000000000009 45.965999999999994 6.52600000000001 45.97899999999999 6.59100000000001 45.97899999999999 C 6.78500000000001 45.97899999999999 6.9700000000000095 45.864999999999995 7.05100000000001 45.67399999999999 C 7.39500000000001 44.86599999999999 7.67500000000001 44.00999999999999 7.94600000000001 43.181999999999995 C 8.211000000000011 42.373999999999995 8.48400000000001 41.538999999999994 8.810000000000011 40.769999999999996 C 9.19200000000001 39.873999999999995 9.586000000000011 38.946 10.18000000000001 38.19 C 10.765000000000011 37.445 11.53100000000001 36.87 12.34000000000001 36.260999999999996 C 12.54200000000001 36.108999999999995 12.736000000000011 35.95099999999999 12.935000000000011 35.797 C 13.076000000000011 36.190999999999995 13.230000000000011 36.58 13.40700000000001 36.959999999999994 C 13.867000000000012 37.949999999999996 14.44700000000001 38.849999999999994 15.00700000000001 39.73 C 15.637000000000011 40.72 16.35700000000001 41.839999999999996 17.32700000000001 42.68 C 17.92700000000001 43.2 18.66700000000001 43.65 19.567000000000007 44.05 C 21.037000000000006 44.69 22.577000000000005 45 24.067000000000007 45 C 26.43700000000001 45 28.68700000000001 44.22 30.30700000000001 42.71 C 31.137000000000008 41.94 31.78700000000001 41.01 32.25700000000001 40.28 C 32.94600000000001 39.22 33.555000000000014 38.114000000000004 34.09800000000001 36.976 C 35.09000000000001 37.507999999999996 35.86700000000001 38.112 36.85700000000001 39.138999999999996 C 36.99800000000001 39.284 37.109000000000016 39.403999999999996 37.170000000000016 39.528999999999996 C 37.23300000000002 39.657999999999994 37.26300000000002 39.831999999999994 37.305000000000014 40.089999999999996 C 37.58000000000001 41.736 38.14500000000002 43.510999999999996 39.08000000000001 45.678 C 39.161000000000016 45.866 39.34600000000001 45.98 39.539000000000016 45.98 C 39.60500000000002 45.98 39.673000000000016 45.967 39.737000000000016 45.939 C 39.991000000000014 45.83 40.10700000000001 45.536 39.99800000000002 45.282 C 39.09600000000002 43.190999999999995 38.55300000000002 41.489 38.27900000000002 39.855 C 38.240000000000016 39.617999999999995 38.19600000000002 39.348 38.06600000000002 39.086999999999996 C 37.93100000000002 38.812 37.725000000000016 38.599999999999994 37.576000000000015 38.44499999999999 C 36.50200000000002 37.32999999999999 35.622000000000014 36.653999999999996 34.51400000000002 36.065999999999995 C 35.75800000000002 33.211999999999996 36.548000000000016 30.164999999999996 36.856000000000016 27.060999999999993 C 38.13900000000002 28.240999999999993 39.39200000000002 29.465999999999994 40.573000000000015 30.735999999999994 C 40.91300000000002 31.099999999999994 41.20900000000002 31.431999999999995 41.40100000000002 31.803999999999995 C 41.61000000000002 32.20099999999999 41.713000000000015 32.67699999999999 41.81300000000002 33.138 C 41.966000000000015 33.845 42.189000000000014 34.397999999999996 42.405000000000015 34.931999999999995 C 42.613000000000014 35.45099999999999 42.81000000000002 35.940999999999995 42.94700000000002 36.565 C 42.99800000000002 36.799 43.20500000000002 36.958999999999996 43.43500000000002 36.958999999999996 C 43.47000000000001 36.958999999999996 43.50500000000002 36.955 43.54100000000002 36.946999999999996 C 43.81100000000002 36.888 43.981000000000016 36.62199999999999 43.923000000000016 36.352 C 43.772 35.645 43.55 35.092 43.334 34.558 z M 28.05 7.602 C 28.392 7.23 28.641000000000002 6.856 28.882 6.494 C 29.166 6.066 29.435000000000002 5.662 29.832 5.308999999999999 C 30.242 4.944999999999999 30.685000000000002 4.568 31.186 4.3149999999999995 C 31.414 4.199999999999999 31.578 4.146999999999999 31.727 4.159 C 31.836000000000002 4.1659999999999995 31.926000000000002 4.226999999999999 31.94 4.268 C 31.950000000000003 4.295999999999999 31.973000000000003 4.4559999999999995 31.491 4.859 C 30.755 5.471 30.029 6.407 29.326999999999998 7.311 C 28.99 7.745 28.674 8.143 28.372 8.494 C 28.233 8.219 28.079 7.952 27.906 7.707 C 27.958 7.68 28.008 7.647 28.05 7.602 z M 19.837 7.77 C 18.233 6.922 17.149 5.935 16.320999999999998 4.568999999999999 C 16.121 4.237999999999999 16.133 4.118999999999999 16.148 4.083999999999999 C 16.169 4.034999999999998 16.293 3.9749999999999988 16.427 3.9959999999999987 C 16.634 4.025999999999999 16.847 4.175999999999998 17.044999999999998 4.332999999999998 L 17.136999999999997 4.405999999999999 C 17.641999999999996 4.804999999999999 17.974999999999998 5.068999999999999 18.420999999999996 5.539999999999999 L 20.255999999999997 7.467999999999999 C 20.129999999999995 7.578999999999999 20.007999999999996 7.693999999999999 19.891 7.815999999999999 C 19.873 7.8 19.859 7.781 19.837 7.77 z M 22.043 7.472 C 23.367 6.886 25.003 6.909000000000001 26.308 7.529000000000001 C 26.922 7.821000000000001 27.482 8.789000000000001 27.795 9.669 C 26.662000000000003 9.198 25.337000000000003 8.976 23.901000000000003 9.023 C 22.476000000000003 9.072 21.038000000000004 9.343 19.694000000000003 9.798 C 20.201 8.788 21.076 7.899 22.043 7.472 z M 18.971 11.137 C 19.011 11.127 19.047 11.110000000000001 19.082 11.091000000000001 C 20.579 10.455000000000002 22.267 10.081000000000001 23.935000000000002 10.023000000000001 C 24.048000000000002 10.019000000000002 24.167 10.016000000000002 24.290000000000003 10.016000000000002 C 25.444000000000003 10.016000000000002 26.971000000000004 10.212000000000002 28.284000000000002 11.038000000000002 C 29.188000000000002 11.605000000000002 29.908 12.405000000000001 30.671000000000003 13.253000000000002 L 31.256000000000004 13.896000000000003 C 31.712000000000003 14.390000000000002 32.143 14.856000000000002 32.449000000000005 15.395000000000003 C 32.804 16.021000000000004 32.916000000000004 16.678000000000004 32.75600000000001 17.197000000000003 C 32.45900000000001 18.156000000000002 31.310000000000006 18.685000000000002 30.111000000000008 19.115000000000002 L 26.166000000000007 20.528000000000002 C 25.442000000000007 20.788000000000004 24.692000000000007 21.047 23.953000000000007 21.018 C 23.349000000000007 20.986 22.745000000000008 20.746000000000002 22.161000000000005 20.513 L 16.823000000000004 18.394000000000002 C 16.557000000000002 18.289 16.235000000000003 18.195 15.898000000000003 18.098000000000003 C 15.116000000000003 17.873 14.141000000000004 17.594 14.147000000000004 17.135 C 14.182 14.413 16.241 12.328 18.971 11.137 z M 17.99 41.92 C 17.119999999999997 41.18 16.479999999999997 40.17 15.849999999999998 39.190000000000005 C 15.309999999999999 38.34 14.749999999999998 37.46000000000001 14.319999999999999 36.540000000000006 C 13.139999999999999 34.03000000000001 12.879999999999999 31.170000000000005 12.62 28.410000000000004 L 12.1 22.650000000000006 C 11.95 20.950000000000006 11.87 19.050000000000004 12.94 17.920000000000005 C 13.035 17.816000000000006 13.141 17.725000000000005 13.25 17.638000000000005 C 13.574 18.462000000000007 14.69 18.791000000000004 15.624 19.059000000000005 C 15.926 19.146000000000004 16.217 19.228000000000005 16.455000000000002 19.323000000000004 L 21.793000000000003 21.442000000000004 C 22.285000000000004 21.637000000000004 22.831000000000003 21.849000000000004 23.413000000000004 21.953000000000003 C 23.392000000000003 23.759000000000004 23.263000000000005 25.494000000000003 23.126000000000005 27.166000000000004 C 22.977000000000004 28.996000000000002 22.822000000000006 30.889000000000003 22.821000000000005 32.899 C 22.819000000000006 36.537 22.824000000000005 40.294 23.478000000000005 43.965 C 22.306000000000004 43.893 21.113000000000007 43.63 19.969000000000005 43.129000000000005 C 19.16 42.78 18.51 42.38 17.99 41.92 z M 31.42 39.74 C 30.98 40.410000000000004 30.380000000000003 41.28 29.62 41.980000000000004 C 28.285 43.224000000000004 26.452 43.888000000000005 24.494 43.974000000000004 C 23.820999999999998 40.333000000000006 23.819 36.557 23.820999999999998 32.901 C 23.822 30.931000000000004 23.973999999999997 29.059000000000005 24.122999999999998 27.249000000000002 C 24.259999999999998 25.567000000000004 24.395999999999997 23.827 24.418999999999997 21.997000000000003 C 25.165999999999997 21.937000000000005 25.870999999999995 21.697000000000003 26.504999999999995 21.470000000000002 L 30.449999999999996 20.057000000000002 C 31.890999999999995 19.539 33.285 18.871000000000002 33.711999999999996 17.493000000000002 C 33.839 17.083000000000002 33.858 16.639000000000003 33.782999999999994 16.184 C 34.32599999999999 16.376 34.775999999999996 16.729000000000003 35.05 17.202 C 35.25 17.522000000000002 35.339999999999996 17.922 35.43 18.342000000000002 C 36.92 25.59 35.42 33.58 31.42 39.74 z" stroke-linecap="round" />
</g>
</g>
</g>
</svg>